<svg width="512" height="512" viewBox="0 0 512 512" fill="none" xmlns="http://www.w3.org/2000/svg">
<g clip-path="url(#clip0_3_11)">
<rect x="1" y="1.16003" width="512" height="512" rx="168" fill="white"/>
<path d="M179.133 446.822C196.659 446.942 213.173 442.826 228.436 434.288C240.574 427.498 251.094 418.812 259.808 407.693C270.553 393.982 277.334 378.688 280.531 361.772C283.944 343.713 282.186 325.988 275.886 308.702C270.162 292.999 260.452 280.169 249.007 268.087C233.007 251.197 222.456 231.086 217.528 208.089C214.985 196.222 213.611 184.276 214.481 172.266C216.202 148.497 223.244 126.343 237.119 106.755C248.475 90.7252 262.555 77.6039 279.812 67.9323C299.727 56.771 320.092 51.0469 342.763 52.2532C343.128 60.8145 343.119 68.9911 343.11 77.1677C326.47 77.193 310.814 80.9723 295.947 88.6122C281.401 96.0873 269.422 106.373 259.733 119.442C249.339 133.46 243.321 149.342 240.733 166.448C238.885 178.662 239.926 190.832 242.664 202.954C245.874 217.163 252.026 229.904 260.404 241.633C262.985 245.247 266.138 248.494 269.287 251.652C287.726 270.14 299.893 292.179 305.16 317.649C307.274 327.869 308.005 338.606 307.67 349.054C307.073 367.667 302.463 385.551 293.931 402.222C285.925 417.866 275.083 431.222 261.625 442.623C239.039 461.757 209.214 473.395 179.483 471.752C179.113 463.185 179.123 455.004 179.133 446.822Z" fill="#5F69E1"/>
<path d="M179.625 446.766C179.998 455.004 179.988 463.185 179.973 471.752C169.246 472.379 157.422 471.11 147.001 468.308C131.552 464.155 117.413 457.34 104.382 447.954C91.7267 438.838 81.0988 427.809 72.6417 414.879C62.863 399.927 56.1341 383.592 53.5522 365.733C51.5165 351.652 51.4246 335.602 53.5822 321.603C56.0286 305.73 61.8271 291.12 69.903 277.323C76.8807 265.403 86.0233 255.235 96.2888 246.231C103.261 240.116 111.317 235.24 119.247 229.553C113.652 225.039 107.771 220.293 101.674 215.374C107.036 208.616 112.192 202.115 117.639 195.248C124.61 200.816 131.597 206.408 138.598 211.984C144.787 216.912 150.98 221.836 157.196 226.73C158.74 227.945 159.666 228.799 158.9 231.339C154.335 246.482 150.113 261.729 145.857 276.964C145.152 279.485 144.49 280.435 141.426 279.41C134.423 277.068 127.195 275.397 120.113 273.468C121.6 268.161 122.953 263.336 124.356 258.332C97.9717 267.183 72.6293 321.025 77.2783 354.535C85.0075 410.248 130.452 446.963 179.625 446.766Z" fill="#A060E3"/>
<path d="M342.616 77.2259C342.244 68.9912 342.253 60.8145 342.272 52.2533C370.946 50.5795 399.589 61.9155 421.979 79.2718C432.926 87.7572 442.045 97.8104 449.56 109.206C459.393 124.115 466.123 140.436 468.72 158.283C470.806 172.621 470.76 188.515 468.683 201.976C465.235 224.321 455.918 243.969 441.72 261.437C431.093 274.512 418.295 284.955 403.699 293.265C403.482 293.388 403.329 293.622 402.724 294.226C408.57 298.946 414.379 303.636 420.568 308.633C415.306 315.269 410.144 321.777 404.646 328.71C399.1 324.324 393.541 319.937 387.992 315.538C380.28 309.425 372.516 303.376 364.938 297.102C363.933 296.269 363.176 294.08 363.51 292.845C367.91 276.558 372.527 260.329 377.233 243.577C385.522 245.915 393.594 248.192 401.941 250.546C400.535 255.691 399.214 260.525 397.613 266.386C410.517 258.748 419.784 248.78 427.512 237.421C441.333 217.108 447.132 194.282 444.633 170.065C439.184 117.251 395.217 77.2878 342.616 77.2259Z" fill="#463FC6"/>
<path d="M343.978 248.738C340.701 248.779 337.419 248.719 334.149 248.894C331.596 249.03 330.84 247.92 330.876 245.507C330.977 238.811 330.845 232.111 330.938 225.414C330.97 223.105 330.296 221.903 327.996 220.833C323.845 218.902 319.867 216.479 316.139 213.81C314.375 212.547 313.382 212.4 311.573 213.513C305.907 217.001 300.094 220.25 294.352 223.617C292.63 224.627 290.863 225.672 289.488 223.3C285.744 216.844 282.091 210.335 278.056 203.237C284.115 199.736 289.807 196.106 295.811 193.102C299.582 191.215 301.251 189.01 300.637 184.68C300.154 181.269 300.265 177.703 300.634 174.262C300.977 171.061 299.846 169.304 297.091 167.841C291.457 164.848 285.93 161.641 280.499 158.294C279.643 157.767 278.786 155.645 279.171 154.942C282.877 148.183 286.85 141.57 290.898 134.657C298.774 139.145 306.291 143.427 313.132 147.325C318.811 144.286 323.999 141.68 328.969 138.711C330.022 138.082 330.778 136.137 330.819 134.773C331.011 128.354 331.022 121.923 330.857 115.503C330.784 112.642 331.751 111.551 334.617 111.751C337.473 111.951 340.351 111.828 343.608 112.261C343.992 129.024 343.987 145.373 343.649 161.764C334.385 162.263 324.997 170.076 325.874 181.355C326.581 190.434 333.714 197.526 343.992 198.484C343.993 215.487 343.986 232.112 343.978 248.738Z" fill="#293E65"/>
<path d="M343.488 248.775C343.111 232.112 343.118 215.487 343.456 198.447C351.753 197.377 358.4 192.183 360.347 185.093C363.51 173.573 355.998 163.39 343.106 161.721C343.111 145.373 343.117 129.024 343.111 112.302C346.105 111.885 349.113 111.916 352.114 111.776C354.589 111.661 355.517 112.713 355.483 115.162C355.395 121.452 355.625 127.751 355.391 134.033C355.278 137.071 356.704 138.305 359.15 139.524C363.019 141.452 366.873 143.544 370.337 146.103C372.817 147.936 374.562 147.094 376.619 145.878C382.825 142.21 389.041 138.559 395.852 134.549C400.186 141.98 404.385 149.179 408.811 156.767C402.097 160.733 395.873 164.601 389.453 168.111C386.645 169.646 385.681 171.073 386.32 174.51C387.028 178.317 386.705 182.432 386.155 186.317C385.776 188.995 386.486 190.384 388.676 191.618C395.195 195.291 401.65 199.077 408.759 203.183C405.75 208.459 402.924 213.676 399.848 218.74C395.771 225.453 395.717 225.351 388.656 221.209C383.602 218.245 378.453 215.443 373.673 212.752C368.039 215.792 362.518 218.631 357.18 221.779C356.223 222.343 355.571 224.171 355.54 225.434C355.376 231.995 355.36 238.564 355.503 245.125C355.566 248.004 354.475 249.076 351.662 248.896C349.074 248.731 346.47 248.83 343.488 248.775Z" fill="#182A4C"/>
<path d="M179.047 275.257C182.324 275.22 185.603 275.259 188.876 275.122C191.353 275.019 192.269 276.073 192.238 278.514C192.155 285.21 192.06 291.914 192.342 298.598C192.405 300.092 193.65 302.078 194.944 302.88C199.526 305.72 204.364 308.144 209.949 311.186C215.272 308.112 221.655 304.533 227.921 300.759C230.922 298.951 232.885 298.894 234.682 302.458C237.192 307.436 240.18 312.178 243.059 316.963C244.537 319.42 244.92 321.118 241.712 322.742C236.376 325.444 231.359 328.768 226.099 331.63C223.473 333.059 222.029 334.558 222.451 337.934C222.935 341.814 223.02 345.872 222.425 349.72C221.866 353.341 223.51 354.756 226.213 356.237C232.398 359.626 238.46 363.239 245.051 367.037C240.775 374.467 236.669 381.603 232.25 389.282C224.431 384.847 216.911 380.582 209.858 376.581C204.535 379.532 199.472 382.157 194.636 385.15C193.449 385.885 192.383 387.799 192.329 389.213C192.081 395.626 192.114 402.057 192.259 408.477C192.324 411.357 191.226 412.409 188.419 412.245C185.56 412.079 182.685 412.179 179.444 411.754C179.064 394.985 179.057 378.625 179.383 362.227C191.311 360.419 197.68 352.998 197.129 341.899C196.698 333.218 189.058 326.46 179.06 325.529C179.063 308.521 179.055 291.889 179.047 275.257Z" fill="#182A4C"/>
<path d="M179.925 362.266C179.932 378.625 179.939 394.985 179.935 411.72C176.919 412.133 173.91 412.07 170.914 412.241C168.371 412.387 167.595 411.288 167.633 408.865C167.736 402.306 167.593 395.744 167.698 389.185C167.737 386.805 166.883 385.722 164.626 384.694C160.472 382.803 156.413 380.523 152.737 377.827C150.214 375.978 148.501 376.952 146.497 378.117C140.175 381.793 133.866 385.493 127.195 389.393C123.101 382.359 119.083 375.622 115.336 368.738C114.995 368.111 116.099 366.051 117.034 365.482C122.834 361.946 128.739 358.575 134.695 355.306C136.808 354.146 137.274 352.969 136.959 350.441C136.406 346.017 136.373 341.429 136.915 337.007C137.208 334.62 136.812 333.639 134.846 332.542C127.992 328.719 121.238 324.718 114.241 320.666C118.226 313.801 122.011 307.374 125.689 300.887C126.705 299.095 127.663 298.602 129.576 299.767C134.797 302.947 140.169 305.878 145.384 309.067C148.244 310.816 150.485 311.636 153.677 309.044C156.983 306.359 161.115 304.622 165.039 302.802C166.906 301.936 167.746 301.052 167.706 298.926C167.583 292.231 167.776 285.53 167.615 278.837C167.545 275.968 168.539 274.891 171.385 275.1C173.967 275.29 176.572 275.164 179.545 275.217C179.93 291.889 179.938 308.521 179.594 325.568C173.621 325.861 169.381 328.485 165.975 332.713C156.303 344.717 165.157 361.156 179.925 362.266Z" fill="#293E65"/>
</g>
<defs>
<clipPath id="clip0_3_11">
<rect width="512" height="512" fill="white"/>
</clipPath>
</defs>
</svg>
